<?xml version="1.0" standalone="no"?>
<!DOCTYPE svg PUBLIC "-//W3C//DTD SVG 20010904//EN"
 "http://www.w3.org/TR/2001/REC-SVG-20010904/DTD/svg10.dtd">
<svg version="1.0" xmlns="http://www.w3.org/2000/svg"
 width="75.000000pt" height="75.000000pt" viewBox="0 0 75.000000 75.000000"
 preserveAspectRatio="xMidYMid meet">
<metadata>
Created by potrace 1.14, written by Peter Selinger 2001-2017
</metadata>
<g transform="translate(0.000000,75.000000) scale(0.100000,-0.100000)"
fill="#000000" stroke="none">
<path d="M274 625 c-14 -19 -30 -33 -34 -30 -4 2 -15 -4 -25 -15 -18 -20 -41
-28 -30 -11 3 5 0 13 -7 17 -7 4 -10 3 -5 -1 4 -5 0 -16 -9 -26 -12 -13 -12
-19 -3 -25 8 -5 10 -3 4 6 -5 9 -4 11 4 6 6 -4 9 -12 5 -17 -3 -5 -10 -6 -16
-3 -8 5 -9 1 -5 -10 5 -13 3 -17 -5 -13 -7 2 -20 -3 -28 -11 -13 -14 -12 -15
3 -9 24 9 21 -8 -5 -34 -13 -12 -17 -19 -10 -15 18 11 15 -5 -5 -21 -16 -13
-16 -14 -1 -9 15 4 17 -2 14 -45 -2 -27 0 -52 5 -55 5 -3 9 -16 9 -30 0 -17 4
-23 12 -18 7 5 8 3 2 -7 -13 -22 -16 -51 -3 -44 6 4 8 13 5 21 -3 8 -1 14 4
14 6 0 10 -10 10 -22 0 -12 3 -18 7 -14 4 4 16 -10 25 -31 10 -21 15 -28 12
-15 -6 23 -5 23 15 5 22 -18 28 -29 11 -18 -16 10 -11 -1 7 -16 11 -10 14 -10
9 -1 -9 15 -7 15 32 1 18 -6 29 -16 25 -22 -4 -6 -1 -7 8 -1 19 12 40 14 34 4
-3 -5 7 -8 22 -6 16 1 36 -2 47 -7 12 -6 16 -6 12 1 -3 6 -2 13 4 17 5 3 10 0
10 -7 0 -10 2 -10 9 1 5 8 14 10 21 6 8 -5 11 -4 7 2 -4 6 5 15 18 21 18 8 23
8 21 -1 -1 -7 -1 -9 1 -4 3 4 9 5 14 2 5 -4 6 1 3 9 -3 9 2 17 15 21 12 3 21
13 21 21 0 17 16 19 24 2 3 -7 3 -1 1 15 -3 19 1 27 11 27 8 0 12 4 9 10 -3 5
-1 10 4 10 6 0 11 5 11 11 0 5 -4 7 -10 4 -5 -3 -7 0 -4 9 3 9 12 12 22 8 15
-5 16 -4 2 13 -9 11 -10 16 -2 11 6 -4 12 -2 12 3 0 6 -6 11 -12 11 -9 0 -8 3
2 10 17 10 22 62 5 54 -5 -3 -1 2 10 12 16 13 17 16 3 11 -10 -3 -20 -2 -23 3
-4 6 -1 10 4 10 6 0 11 5 11 11 0 5 -4 7 -10 4 -5 -3 -10 -2 -10 4 0 5 6 12
13 14 7 3 5 6 -5 6 -10 1 -18 6 -18 12 0 5 6 7 13 4 6 -4 4 0 -7 9 -10 8 -16
22 -13 30 6 15 -22 46 -41 46 -6 0 -17 9 -25 21 -8 11 -26 21 -39 23 -33 3
-50 16 -44 32 7 19 -4 18 -21 -3 -8 -10 -12 -13 -9 -7 3 7 -16 10 -57 9 -34
-1 -62 -3 -62 -4 0 -2 -8 -4 -18 -6 -9 -2 -15 1 -11 6 3 5 9 7 13 5 4 -3 8 1
8 9 0 21 -3 19 -33 -20z m326 -90 c7 -8 9 -15 6 -15 -4 0 -14 7 -22 15 -9 8
-11 15 -6 15 5 0 15 -7 22 -15z m50 -185 c0 -5 -2 -10 -4 -10 -3 0 -8 5 -11
10 -3 6 -1 10 4 10 6 0 11 -4 11 -10z"/>
<path d="M340 650 c8 -5 20 -10 25 -10 6 0 3 5 -5 10 -8 5 -19 10 -25 10 -5 0
-3 -5 5 -10z"/>
<path d="M410 649 c0 -5 5 -7 10 -4 6 3 10 8 10 11 0 2 -4 4 -10 4 -5 0 -10
-5 -10 -11z"/>
<path d="M476 631 c-4 -5 -2 -12 3 -15 5 -4 12 -2 15 3 4 5 2 12 -3 15 -5 4
-12 2 -15 -3z"/>
<path d="M243 615 c0 -8 4 -12 9 -9 5 3 6 10 3 15 -9 13 -12 11 -12 -6z"/>
<path d="M212 608 c-7 -7 -12 -16 -12 -21 0 -5 7 -1 16 8 9 9 14 18 12 20 -2
3 -10 -1 -16 -7z"/>
<path d="M550 591 c0 -6 4 -13 10 -16 6 -3 7 1 4 9 -7 18 -14 21 -14 7z"/>
<path d="M630 510 c0 -5 5 -10 11 -10 5 0 7 5 4 10 -3 6 -8 10 -11 10 -2 0 -4
-4 -4 -10z"/>
<path d="M95 381 c-3 -5 -2 -12 3 -15 5 -3 9 1 9 9 0 17 -3 19 -12 6z"/>
<path d="M95 341 c-3 -5 -2 -12 3 -15 5 -3 9 1 9 9 0 17 -3 19 -12 6z"/>
<path d="M275 110 c3 -5 8 -10 11 -10 2 0 4 5 4 10 0 6 -5 10 -11 10 -5 0 -7
-4 -4 -10z"/>
</g>
</svg>
