<svg width="16" height="20" viewBox="0 0 16 20" fill="none" xmlns="http://www.w3.org/2000/svg">
<path d="M14.7273 7.54528C14.7273 8.27198 14.4709 9.19181 14.0141 10.2353C13.5614 11.2693 12.932 12.3803 12.2314 13.4761C10.8309 15.6668 9.174 17.7541 8.15956 18.9784C7.88846 19.3029 7.38427 19.3029 7.11317 18.9784C6.09873 17.7541 4.44186 15.6668 3.04131 13.4761C2.34077 12.3803 1.71133 11.2693 1.25864 10.2353C0.801807 9.19181 0.545455 8.27198 0.545455 7.54528C0.545455 3.79971 3.70283 0.727095 7.63636 0.727095C11.5699 0.727095 14.7273 3.79971 14.7273 7.54528ZM4.54545 7.54528C4.54545 9.21889 5.95001 10.5453 7.63636 10.5453C9.32272 10.5453 10.7273 9.21889 10.7273 7.54528C10.7273 5.87167 9.32272 4.54528 7.63636 4.54528C5.95001 4.54528 4.54545 5.87167 4.54545 7.54528Z" stroke="#B1B1B1" stroke-width="1.09091"/>
</svg>
