<svg width="26" height="26" viewBox="0 0 26 26" fill="none" xmlns="http://www.w3.org/2000/svg">
<path d="M13.625 0.683766C11.8019 -0.0343589 9.76502 -0.186859 7.85189 0.233141C5.92564 0.653141 4.13689 1.66752 2.77814 3.09439C1.45064 4.47627 0.532516 6.24689 0.178141 8.13064C-0.17436 9.97689 0.00501442 11.9219 0.70064 13.6688C1.55126 15.83 3.18127 17.67 5.22127 18.7794C7.04502 19.7844 9.19001 20.1819 11.2538 19.92C13.1 19.6931 14.8731 18.9275 16.3113 17.7494C18.9681 20.405 21.6244 23.0613 24.28 25.7175C24.7594 25.2388 25.2388 24.7594 25.7181 24.28C23.0613 21.6238 20.405 18.9681 17.7494 16.3113C19.0369 14.745 19.8263 12.7781 19.9706 10.7556C20.1219 8.78564 19.6744 6.77439 18.69 5.06064C17.5656 3.08189 15.7481 1.50689 13.625 0.683766ZM10.4256 2.01252C12.7375 2.11752 14.9669 3.29627 16.3619 5.14127C17.4881 6.60502 18.0719 8.46939 17.9925 10.3138C17.9306 12.1288 17.2225 13.9119 16.0213 15.2738C14.9013 16.5569 13.36 17.4669 11.6925 17.8194C9.84876 18.2175 7.86439 17.9481 6.20502 17.0475C4.66814 16.2256 3.41814 14.8844 2.70564 13.2938C1.89752 11.5106 1.78251 9.42877 2.37689 7.56439C2.93752 5.78314 4.15001 4.21814 5.73252 3.22752C7.11939 2.34564 8.78626 1.92314 10.4256 2.01252Z" fill="white" fill-opacity="0.5"/>
</svg>
