<svg width="48" height="26" viewBox="0 0 48 26" fill="none" xmlns="http://www.w3.org/2000/svg">
<path fill-rule="evenodd" clip-rule="evenodd" d="M28.9277 1.03909C24.0059 -0.0800503 18.7949 0.623074 14.1816 2.58987C8.75 4.91214 3.91602 8.56643 0.0273438 12.9981C2.44922 15.791 5.28125 18.2149 8.36133 20.2539C12.9922 23.3242 18.3965 25.4336 24.0039 25.4981C29.5215 25.4375 34.8418 23.3946 39.418 20.4004C42.5859 18.334 45.4902 15.8535 47.9746 13C45.4316 10.0684 42.4473 7.52737 39.1836 5.42971C36.043 3.41018 32.5918 1.81839 28.9277 1.03909ZM14.8555 17.4473C12.5801 14.0489 12.4844 9.38089 14.5645 5.86722C18.416 4.05081 22.791 3.16995 27.0273 3.86917C29.207 4.21682 31.3398 4.87698 33.3359 5.82034C34.6367 7.80471 35.1172 10.2832 34.8652 12.6309C34.5742 15.4532 33.125 18.1289 30.9238 19.9199C28.9902 21.5098 26.4922 22.4121 23.9844 22.3672C20.3633 22.4356 16.8145 20.4785 14.8555 17.4473ZM12.0801 18.9024C9.31445 17.2774 6.76758 15.2871 4.51953 13C6.28906 11.2188 8.23828 9.61721 10.3223 8.21878C9.45117 11.8301 10.1016 15.7598 12.0801 18.9024ZM35.9219 18.9004C37.8965 15.7578 38.5488 11.8301 37.6777 8.22073C39.7656 9.61722 41.7129 11.2227 43.4844 13.002C41.2285 15.2813 38.6934 17.2871 35.9219 18.9004ZM26.9141 7.76959C25.8125 6.87701 24.293 6.54888 22.918 6.87896C21.5274 7.20318 20.3125 8.20123 19.7305 9.50591C19.1543 10.7618 19.1797 12.2754 19.7988 13.5118C20.4707 14.8926 21.8613 15.8946 23.3887 16.0821C24.6289 16.252 25.9297 15.8907 26.9063 15.1094C28.0703 14.2012 28.752 12.7169 28.6797 11.2422C28.6328 9.90044 27.9668 8.59966 26.9141 7.76959Z" fill="white"/>
</svg>
