<svg width="21" height="22" viewBox="0 0 21 22" fill="none" xmlns="http://www.w3.org/2000/svg">
<path d="M7.46682 2.81907V3.0918H7.73955H13.3499H13.6227V2.81907V1.45543C13.6227 0.858986 14.1201 0.364524 14.7525 0.364524C15.385 0.364524 15.8824 0.858986 15.8824 1.45543V2.81907V3.0918H16.1551H18.259C19.2772 3.0918 20.0902 3.89308 20.0902 4.86452V6.63725H0.99929V4.86452C0.99929 3.89308 1.81226 3.0918 2.83046 3.0918H4.93435H5.20708V2.81907V1.45543C5.20708 0.858986 5.70447 0.364524 6.33695 0.364524C6.96943 0.364524 7.46682 0.858986 7.46682 1.45543V2.81907ZM0.99929 8.54634H20.0902V19.8645C20.0902 20.836 19.2772 21.6373 18.259 21.6373H2.83046C1.81226 21.6373 0.99929 20.836 0.99929 19.8645V8.54634ZM3.25903 11.6827V13.0463C3.25903 13.5792 3.70401 14.0009 4.23306 14.0009H5.63565C6.1647 14.0009 6.60968 13.5792 6.60968 13.0463V11.6827C6.60968 11.1499 6.1647 10.7282 5.63565 10.7282H4.23306C3.70401 10.7282 3.25903 11.1499 3.25903 11.6827ZM8.86942 11.6827V13.0463C8.86942 13.5792 9.3144 14.0009 9.84345 14.0009H11.246C11.7751 14.0009 12.2201 13.5792 12.2201 13.0463V11.6827C12.2201 11.1499 11.7751 10.7282 11.246 10.7282H9.84345C9.3144 10.7282 8.86942 11.1499 8.86942 11.6827ZM15.4538 10.7282C14.9248 10.7282 14.4798 11.1499 14.4798 11.6827V13.0463C14.4798 13.5792 14.9248 14.0009 15.4538 14.0009H16.8564C17.3855 14.0009 17.8305 13.5792 17.8305 13.0463V11.6827C17.8305 11.1499 17.3855 10.7282 16.8564 10.7282H15.4538ZM3.25903 17.1373V18.5009C3.25903 19.0337 3.70401 19.4554 4.23306 19.4554H5.63565C6.1647 19.4554 6.60968 19.0337 6.60968 18.5009V17.1373C6.60968 16.6044 6.1647 16.1827 5.63565 16.1827H4.23306C3.70401 16.1827 3.25903 16.6044 3.25903 17.1373ZM9.84345 16.1827C9.3144 16.1827 8.86942 16.6044 8.86942 17.1373V18.5009C8.86942 19.0337 9.3144 19.4554 9.84345 19.4554H11.246C11.7751 19.4554 12.2201 19.0337 12.2201 18.5009V17.1373C12.2201 16.6044 11.7751 16.1827 11.246 16.1827H9.84345ZM14.4798 17.1373V18.5009C14.4798 19.0337 14.9248 19.4554 15.4538 19.4554H16.8564C17.3855 19.4554 17.8305 19.0337 17.8305 18.5009V17.1373C17.8305 16.6044 17.3855 16.1827 16.8564 16.1827H15.4538C14.9248 16.1827 14.4798 16.6044 14.4798 17.1373Z" stroke="#B1B1B1" stroke-width="0.545455"/>
</svg>
