<svg width="33" height="23" viewBox="0 0 33 23" fill="none" xmlns="http://www.w3.org/2000/svg">
<path d="M0.5 3.90931C0.5 1.86619 2.10494 0.205078 4.07897 0.205078H18.3948C20.3689 0.205078 21.9738 1.86619 21.9738 3.90931V18.7262C21.9738 20.7693 20.3689 22.4305 18.3948 22.4305H4.07897C2.10494 22.4305 0.5 20.7693 0.5 18.7262V3.90931ZM31.7656 2.27713C32.3472 2.60125 32.7107 3.22634 32.7107 3.90931V18.7262C32.7107 19.4092 32.3472 20.0343 31.7656 20.3584C31.184 20.6825 30.4794 20.6478 29.9258 20.2658L24.5574 16.5616L23.7633 16.0117V15.022V7.61354V6.62381L24.5574 6.07397L29.9258 2.36974C30.4738 1.99353 31.1784 1.95301 31.7656 2.27713V2.27713Z" fill="white"/>
</svg>
